<svg id="Capa_1" data-name="Capa 1" xmlns="http://www.w3.org/2000/svg" xmlns:xlink="http://www.w3.org/1999/xlink" viewBox="0 0 60.95 61.7"><defs><style>.cls-1{fill:url(#Degradado_sin_nombre);}.cls-2{opacity:0.5;fill:url(#Degradado_sin_nombre_2);}.cls-15,.cls-17,.cls-18,.cls-2,.cls-3,.cls-4{isolation:isolate;}.cls-3,.cls-4{opacity:0.24;}.cls-3{fill:url(#Degradado_sin_nombre_3);}.cls-4{fill:url(#Degradado_sin_nombre_4);}.cls-5{fill:url(#Degradado_sin_nombre_5);}.cls-6{fill:url(#Degradado_sin_nombre_6);}.cls-7{fill:url(#Degradado_sin_nombre_7);}.cls-8{fill:url(#Degradado_sin_nombre_8);}.cls-9{fill:url(#Degradado_sin_nombre_9);}.cls-10{fill:url(#Degradado_sin_nombre_10);}.cls-11{fill:url(#Degradado_sin_nombre_11);}.cls-12{fill:#643800;}.cls-13{fill:url(#Degradado_sin_nombre_12);}.cls-14{fill:url(#Degradado_sin_nombre_13);}.cls-15{opacity:0.75;fill:url(#Degradado_sin_nombre_14);}.cls-16{fill:url(#Degradado_sin_nombre_15);}.cls-17,.cls-18{opacity:0.65;}.cls-17{fill:url(#Degradado_sin_nombre_16);}.cls-18{fill:url(#Degradado_sin_nombre_17);}</style><radialGradient id="Degradado_sin_nombre" cx="-407.6" cy="411.78" r="1" gradientTransform="matrix(36.77, 0, 0, -36.77, 15019.78, 15166.58)" gradientUnits="userSpaceOnUse"><stop offset="0" stop-color="#ffe030"/><stop offset="1" stop-color="#ffb92e"/></radialGradient><radialGradient id="Degradado_sin_nombre_2" cx="-404.51" cy="409.28" r="1" gradientTransform="matrix(28.93, 0, 0, -28.93, 11734.61, 11865.73)" gradientUnits="userSpaceOnUse"><stop offset="0" stop-color="#ffea5f"/><stop offset="1" stop-color="#ffbc47" stop-opacity="0"/></radialGradient><radialGradient id="Degradado_sin_nombre_3" cx="-387.63" cy="385.62" r="1" gradientTransform="matrix(12.8, -0.62, -0.49, -10.13, 5175.65, 3713.81)" gradientUnits="userSpaceOnUse"><stop offset="0" stop-color="#ff4c00"/><stop offset="0.15" stop-color="#ff4c00"/><stop offset="0.18" stop-color="#ff4c00"/><stop offset="0.4" stop-color="#fb4c0b" stop-opacity="0.73"/><stop offset="0.78" stop-color="#ef4b27" stop-opacity="0.27"/><stop offset="1" stop-color="#e74a3a" stop-opacity="0"/></radialGradient><radialGradient id="Degradado_sin_nombre_4" cx="-452.93" cy="452.39" r="1" gradientTransform="matrix(-12.8, -0.62, -0.49, 10.13, -5520.96, -4816.58)" xlink:href="#Degradado_sin_nombre_3"/><linearGradient id="Degradado_sin_nombre_5" x1="56.25" y1="54.15" x2="56.98" y2="57.28" gradientTransform="matrix(1, 0, 0, -1, 0, 82)" gradientUnits="userSpaceOnUse"><stop offset="0" stop-color="#3c2200"/><stop offset="1" stop-color="#7a4400"/></linearGradient><radialGradient id="Degradado_sin_nombre_6" cx="-328.62" cy="340.33" r="1" gradientTransform="matrix(5.27, 1.48, 0.71, -2.54, 1542.5, 1389.05)" gradientUnits="userSpaceOnUse"><stop offset="0" stop-color="#7a4400"/><stop offset="1" stop-color="#643800"/></radialGradient><linearGradient id="Degradado_sin_nombre_7" x1="53.82" y1="49.51" x2="52.88" y2="46.09" gradientTransform="matrix(1, 0, 0, -1, 0, 82)" gradientUnits="userSpaceOnUse"><stop offset="0" stop-color="#3c2200"/><stop offset="1" stop-color="#512d00"/></linearGradient><linearGradient id="Degradado_sin_nombre_8" x1="23.72" y1="54.18" x2="22.99" y2="57.31" xlink:href="#Degradado_sin_nombre_5"/><radialGradient id="Degradado_sin_nombre_9" cx="-475.92" cy="587.38" r="1" gradientTransform="matrix(-5.27, 1.48, 0.71, 2.54, -2901.85, -752.94)" xlink:href="#Degradado_sin_nombre_6"/><linearGradient id="Degradado_sin_nombre_10" x1="26.15" y1="49.55" x2="27.09" y2="46.14" xlink:href="#Degradado_sin_nombre_7"/><linearGradient id="Degradado_sin_nombre_11" x1="37.91" y1="9.58" x2="62.32" y2="31.33" gradientTransform="matrix(1, 0, 0, -1, 0, 82)" gradientUnits="userSpaceOnUse"><stop offset="0" stop-color="#ff9d00" stop-opacity="0"/><stop offset="1" stop-color="#ff8000"/></linearGradient><linearGradient id="Degradado_sin_nombre_12" x1="26.35" y1="28.29" x2="53.6" y2="28.29" xlink:href="#Degradado_sin_nombre_7"/><linearGradient id="Degradado_sin_nombre_13" x1="53.18" y1="8.64" x2="46.56" y2="34.65" gradientTransform="matrix(1, 0, 0, -1, 0, 82)" gradientUnits="userSpaceOnUse"><stop offset="0" stop-color="#b0e9ff"/><stop offset="0.16" stop-color="#9ae2ff"/><stop offset="0.31" stop-color="#80dafe"/><stop offset="0.62" stop-color="#b0e9ff"/><stop offset="0.73" stop-color="#7bd9ff"/><stop offset="0.85" stop-color="#45c9fe"/><stop offset="0.95" stop-color="#24bffe"/><stop offset="1" stop-color="#17bbfe"/></linearGradient><linearGradient id="Degradado_sin_nombre_14" x1="52.18" y1="7.02" x2="50.15" y2="19.46" gradientTransform="matrix(1, 0, 0, -1, 0, 82)" gradientUnits="userSpaceOnUse"><stop offset="0" stop-color="#fff" stop-opacity="0"/><stop offset="0.5" stop-color="#fff" stop-opacity="0.5"/><stop offset="1" stop-color="#fff" stop-opacity="0"/></linearGradient><linearGradient id="Degradado_sin_nombre_15" x1="50.81" y1="22.18" x2="47.26" y2="2.44" gradientTransform="matrix(1, 0, 0, -1, 0, 82)" gradientUnits="userSpaceOnUse"><stop offset="0" stop-color="#17bbfe" stop-opacity="0"/><stop offset="0.5" stop-color="#0099d6" stop-opacity="0.5"/><stop offset="1" stop-color="#0099d6" stop-opacity="0"/></linearGradient><linearGradient id="Degradado_sin_nombre_16" x1="46.99" y1="31.48" x2="50.67" y2="19.04" xlink:href="#Degradado_sin_nombre_14"/><linearGradient id="Degradado_sin_nombre_17" x1="46.29" y1="35.36" x2="52.89" y2="7.48" gradientTransform="matrix(1, 0, 0, -1, 0, 82)" gradientUnits="userSpaceOnUse"><stop offset="0" stop-color="#0099d6"/><stop offset="1" stop-color="#80dafe"/></linearGradient></defs><path class="cls-1" d="M40,70.1A30.48,30.48,0,1,0,9.52,39.62,30.48,30.48,0,0,0,40,70.1Z" transform="translate(-9.52 -9.14)"/><path class="cls-2" d="M40,70.1A30.48,30.48,0,1,0,9.52,39.62,30.48,30.48,0,0,0,40,70.1Z" transform="translate(-9.52 -9.14)"/><path class="cls-3" d="M40,70.1A30.48,30.48,0,1,0,9.52,39.62,30.48,30.48,0,0,0,40,70.1Z" transform="translate(-9.52 -9.14)"/><path class="cls-4" d="M40,70.1A30.48,30.48,0,1,0,9.52,39.62,30.48,30.48,0,0,0,40,70.1Z" transform="translate(-9.52 -9.14)"/><path class="cls-5" d="M50.46,24.4c.28-1.2,1.73-1.64,3.94-1.12A12.46,12.46,0,0,1,62.17,30c.36.8-.53,1-.93.42a16.42,16.42,0,0,0-9.39-5.34C50.32,24.93,50.46,24.4,50.46,24.4Z" transform="translate(-9.52 -9.14)"/><path class="cls-6" d="M53.39,34S58.3,35.39,59,39.43a1.94,1.94,0,0,1,0,.76c-.1.51-.65,1-1.45.3-5-4-8.38-3.1-10.89-2.51a1.12,1.12,0,0,1-1.22-1.62,3.46,3.46,0,0,1,.38-.65C48.48,32.63,53.39,34,53.39,34Z" transform="translate(-9.52 -9.14)"/><path class="cls-7" d="M53.07,35.2a10.76,10.76,0,0,1,6,4.67,1.75,1.75,0,0,0,0-.46c-.74-4-5.64-5.39-5.64-5.39s-4.89-1.39-7.54,1.68a2.08,2.08,0,0,0-.25.38A10.64,10.64,0,0,1,53.07,35.2Z" transform="translate(-9.52 -9.14)"/><path class="cls-8" d="M29.52,24.4c-.28-1.2-1.73-1.64-3.94-1.12A12.48,12.48,0,0,0,17.81,30c-.36.8.53,1,.93.42a16.42,16.42,0,0,1,9.39-5.34C29.66,24.93,29.52,24.4,29.52,24.4Z" transform="translate(-9.52 -9.14)"/><path class="cls-9" d="M26.59,34S21.68,35.39,21,39.43a2.16,2.16,0,0,0,0,.76c.1.51.65,1,1.45.3,5-4,8.38-3.1,10.9-2.51a1.11,1.11,0,0,0,1.21-1.62,2.64,2.64,0,0,0-.38-.65C31.5,32.63,26.59,34,26.59,34Z" transform="translate(-9.52 -9.14)"/><path class="cls-10" d="M26.91,35.2a10.76,10.76,0,0,0-6,4.67,1.75,1.75,0,0,1,0-.46c.74-4,5.64-5.39,5.64-5.39s4.89-1.39,7.54,1.68a2.08,2.08,0,0,1,.25.38A10.64,10.64,0,0,0,26.91,35.2Z" transform="translate(-9.52 -9.14)"/><path class="cls-11" d="M45.33,58.42a10.15,10.15,0,0,1,.42,6.15,2,2,0,0,0,1.77,2.73c1.11,0,1.49,0,1.38,1.44.8-.24,1.6-.53,2.38-.84.17-3.42.38-11.9.38-11.9l-4,1Z" transform="translate(-9.52 -9.14)"/><path class="cls-12" d="M40,59.43c-12.09,0-16-9.47-12.29-7.81,5,2.23,8.08,2.88,12.29,2.88s7.33-.65,12.29-2.88C56,50,52.1,59.43,40,59.43Z" transform="translate(-9.52 -9.14)"/><path class="cls-13" d="M52.27,51.62c-5,2.23-8.08,2.88-12.29,2.88s-7.33-.65-12.29-2.88c-1.31-.59-1.67.23-1,1.54.13-.38.55-1.1,1.88-.28h0A20.44,20.44,0,0,0,40,56a20.39,20.39,0,0,0,11.41-3.12c1.33-.82,1.75-.1,1.89.28C53.94,51.87,53.58,51,52.27,51.62Z" transform="translate(-9.52 -9.14)"/><path class="cls-14" d="M52.78,54c-.61,1.41-.11,7.47.67,9.22,2.17,5,.72,7.6-1.11,7.6s-2.84-1.64-2.7-4c.21-4.06,1.86-4.53-.23-7.33,0,0-1.26,2.76-.57,4.32,1.14,2.61-3,3.37-2.23.13.48-2-.59-5.39-.59-5.39s-.61-1.75,1.68-2.72C49.31,55.1,50.46,53,52.78,54Z" transform="translate(-9.52 -9.14)"/><path class="cls-15" d="M52.78,54c-.61,1.41-.11,7.47.67,9.22,2.17,5,.72,7.6-1.11,7.6s-2.84-1.64-2.7-4c.21-4.06,1.86-4.53-.23-7.33,0,0-1.26,2.76-.57,4.32,1.14,2.61-3,3.37-2.23.13.48-2-.59-5.39-.59-5.39s-.61-1.75,1.68-2.72C49.31,55.1,50.46,53,52.78,54Z" transform="translate(-9.52 -9.14)"/><path class="cls-16" d="M52.78,54c-.61,1.41-.11,7.47.67,9.22,2.17,5,.72,7.6-1.11,7.6s-2.84-1.64-2.7-4c.21-4.06,1.86-4.53-.23-7.33,0,0-1.26,2.76-.57,4.32,1.14,2.61-3,3.37-2.23.13.48-2-.59-5.39-.59-5.39s-.61-1.75,1.68-2.72C49.31,55.1,50.46,53,52.78,54Z" transform="translate(-9.52 -9.14)"/><path class="cls-17" d="M52.78,54c-.61,1.41-.11,7.47.67,9.22,2.17,5,.72,7.6-1.11,7.6s-2.84-1.64-2.7-4c.21-4.06,1.86-4.53-.23-7.33,0,0-1.26,2.76-.57,4.32,1.14,2.61-3,3.37-2.23.13.48-2-.59-5.39-.59-5.39s-.61-1.75,1.68-2.72C49.31,55.1,50.46,53,52.78,54Z" transform="translate(-9.52 -9.14)"/><path class="cls-18" d="M50.42,59.68A4.92,4.92,0,0,0,50.06,58a.25.25,0,0,0-.48.09,4.07,4.07,0,0,1-.19,1.39c1.92,2.56.71,3.19.32,6.39C52.11,62,50.48,61.35,50.42,59.68Z" transform="translate(-9.52 -9.14)"/></svg>