<svg id="a8ec6154-27dc-4c43-a41c-6d622d435ccd" data-name="Capa 1" xmlns="http://www.w3.org/2000/svg" xmlns:xlink="http://www.w3.org/1999/xlink" viewBox="0 0 15.08 19.43"><defs><style>.eaed5a60-f190-44c5-b6e3-44ffca0f10d4{fill:url(#b0550e4e-bebd-4d7f-b7b6-7eb1916a05b3);}.bcce7b4b-b0b9-49ad-9110-f27d52ddf5ff{fill:url(#fa30a490-ebc9-48f1-9f4f-11b93eca7a8b);}.a8919537-bffd-4ea5-b84e-b56ae2dfc999{fill:url(#a513fdd2-24c2-4d6e-8a4e-83a2f1d78fb3);}.a08200e5-9675-4296-b349-52ad59398459,.a2a44697-ba05-4cba-b99e-e42864629bc6,.a3a23fb8-a164-437d-adef-7611d4048394,.bb3706e3-2b7d-4596-98a5-080a7095361e,.e4d13bea-580c-4c93-9ead-46d80702cfdb,.f021a87e-c10f-4082-8b74-2df80e6ae190,.ff63ccfd-0e0b-4ab0-a8c9-509cd3f77ea3{opacity:0.5;}.a08200e5-9675-4296-b349-52ad59398459,.a2a44697-ba05-4cba-b99e-e42864629bc6,.a30fc475-bb1b-4e98-b754-4cfd1b568df1,.a3a23fb8-a164-437d-adef-7611d4048394,.a86467f4-dbe0-40d8-9436-166382e3372e,.bb3706e3-2b7d-4596-98a5-080a7095361e,.e4d13bea-580c-4c93-9ead-46d80702cfdb,.f021a87e-c10f-4082-8b74-2df80e6ae190,.f9e08865-5fe0-439d-92dc-fed366ab55a5,.ff63ccfd-0e0b-4ab0-a8c9-509cd3f77ea3{isolation:isolate;}.f021a87e-c10f-4082-8b74-2df80e6ae190{fill:url(#b8237dd1-24fb-414d-8717-85c58c3dd191);}.bcb6aa72-39ca-4796-8879-3d24679c4de4{fill:url(#fc715cb6-6e0d-4122-b101-03966cbe4981);}.b19573e2-49b8-4da3-b969-62e951d34865{fill:url(#a95a8391-8c3a-491d-b244-84dd400369b6);}.bcc96d5c-d61a-4ec7-ad77-f1b147292c0e{fill:url(#ad6bf21d-db24-489c-b9bb-ac8cdb485588);}.a08200e5-9675-4296-b349-52ad59398459{fill:url(#bed15ba4-ffa1-4c2c-a614-6b346570eb44);}.bb3706e3-2b7d-4596-98a5-080a7095361e{fill:url(#e52bc018-f533-49a0-8b68-ccf4453f1c27);}.ec9b9c2c-5876-4bc0-b9e3-1655d6c74535{fill:url(#b70dc939-910b-4626-a9aa-401f80cc8bc3);}.a3a23fb8-a164-437d-adef-7611d4048394{fill:url(#bdbb6731-193c-495a-82e2-2793a44b4379);}.ff63ccfd-0e0b-4ab0-a8c9-509cd3f77ea3{fill:url(#bb001d8b-f9a2-4bd9-966d-d907751e24e4);}.b696cf91-b9db-4420-ae60-f5f636acb3a2{fill:url(#f9eae1ef-93f8-4ad6-b64f-3407c23def67);}.a2a44697-ba05-4cba-b99e-e42864629bc6{fill:url(#f50d6f7d-bf61-49bc-b9d4-ca614a16e43b);}.e4d13bea-580c-4c93-9ead-46d80702cfdb{fill:url(#bdfba908-0cf7-46d7-bed7-351dbf3044ae);}.a30fc475-bb1b-4e98-b754-4cfd1b568df1,.a86467f4-dbe0-40d8-9436-166382e3372e,.f9e08865-5fe0-439d-92dc-fed366ab55a5{opacity:0.25;}.f9e08865-5fe0-439d-92dc-fed366ab55a5{fill:url(#acbaecb9-1265-4362-9dc8-4c840a92ef5b);}.a30fc475-bb1b-4e98-b754-4cfd1b568df1{fill:url(#aa090ca9-7d6f-44da-a5ef-fc3d7b73a7a2);}.a86467f4-dbe0-40d8-9436-166382e3372e{fill:url(#ec6a90a2-b74f-4913-b813-8ea98a88b613);}</style><linearGradient id="b0550e4e-bebd-4d7f-b7b6-7eb1916a05b3" x1="12.96" y1="3.75" x2="9.46" y2="29.13" gradientTransform="matrix(1, 0, 0, -1, 0, 26)" gradientUnits="userSpaceOnUse"><stop offset="0" stop-color="red"/><stop offset="0.23" stop-color="#ff1500"/><stop offset="0.74" stop-color="#ff3d00"/><stop offset="1" stop-color="#ff4c00"/></linearGradient><linearGradient id="fa30a490-ebc9-48f1-9f4f-11b93eca7a8b" x1="17.07" y1="4.31" x2="13.56" y2="29.7" xlink:href="#b0550e4e-bebd-4d7f-b7b6-7eb1916a05b3"/><linearGradient id="a513fdd2-24c2-4d6e-8a4e-83a2f1d78fb3" x1="10.74" y1="3.44" x2="7.23" y2="28.83" xlink:href="#b0550e4e-bebd-4d7f-b7b6-7eb1916a05b3"/><linearGradient id="b8237dd1-24fb-414d-8717-85c58c3dd191" x1="12.87" y1="8.07" x2="5.22" y2="29.93" gradientTransform="matrix(1, 0, 0, -1, 0, 26)" gradientUnits="userSpaceOnUse"><stop offset="0" stop-color="#ff8000"/><stop offset="0.64" stop-color="#ff5b00"/><stop offset="1" stop-color="#ff4c00"/></linearGradient><radialGradient id="fc715cb6-6e0d-4122-b101-03966cbe4981" cx="-403.18" cy="357.02" r="1" gradientTransform="matrix(10.2, 0, 0, -10.2, 4128.82, 3641.97)" gradientUnits="userSpaceOnUse"><stop offset="0" stop-color="#ffed1c" stop-opacity="0.6"/><stop offset="0.95" stop-color="#ffed1c" stop-opacity="0.03"/><stop offset="0.99" stop-color="#ffed1c" stop-opacity="0"/></radialGradient><linearGradient id="a95a8391-8c3a-491d-b244-84dd400369b6" x1="9.9" y1="22.66" x2="12.66" y2="7.14" gradientTransform="matrix(1, 0, 0, -1, 0, 26)" gradientUnits="userSpaceOnUse"><stop offset="0" stop-color="#ff8000"/><stop offset="0.02" stop-color="#fe7f02" stop-opacity="0.98"/><stop offset="0.67" stop-color="#ed582a" stop-opacity="0.33"/><stop offset="1" stop-color="#e74939" stop-opacity="0"/></linearGradient><linearGradient id="ad6bf21d-db24-489c-b9bb-ac8cdb485588" x1="12.04" y1="5.88" x2="12.64" y2="16.79" gradientTransform="matrix(1, 0, 0, -1, 0, 26)" gradientUnits="userSpaceOnUse"><stop offset="0" stop-color="#ffbc47"/><stop offset="0.19" stop-color="#ffb137" stop-opacity="0.81"/><stop offset="0.72" stop-color="#ff940f" stop-opacity="0.28"/><stop offset="1" stop-color="#ff8900" stop-opacity="0"/></linearGradient><radialGradient id="bed15ba4-ffa1-4c2c-a614-6b346570eb44" cx="-390.35" cy="335.71" r="1" gradientTransform="matrix(7.89, 0, 0, -6.41, 3092.05, 2167.61)" gradientUnits="userSpaceOnUse"><stop offset="0" stop-color="#ffbc47"/><stop offset="0.29" stop-color="#ffbf4b" stop-opacity="0.71"/><stop offset="0.56" stop-color="#fec656" stop-opacity="0.44"/><stop offset="0.82" stop-color="#fcd368" stop-opacity="0.18"/><stop offset="1" stop-color="#fbe07a" stop-opacity="0"/></radialGradient><radialGradient id="e52bc018-f533-49a0-8b68-ccf4453f1c27" cx="-388.55" cy="333.89" r="1" gradientTransform="matrix(7.65, 0, 0, -6.21, 2983.37, 2089.71)" gradientUnits="userSpaceOnUse"><stop offset="0" stop-color="#fff"/><stop offset="1" stop-color="#fff" stop-opacity="0"/></radialGradient><radialGradient id="b70dc939-910b-4626-a9aa-401f80cc8bc3" cx="-399.42" cy="359.45" gradientTransform="matrix(9.39, 0, 0, -10.94, 3760.89, 3949.89)" xlink:href="#fc715cb6-6e0d-4122-b101-03966cbe4981"/><radialGradient id="bdbb6731-193c-495a-82e2-2793a44b4379" cx="-331.14" cy="585.9" r="1" gradientTransform="matrix(-0.15, 2.97, 2.41, 0.12, -1447.97, 927.64)" xlink:href="#e52bc018-f533-49a0-8b68-ccf4453f1c27"/><radialGradient id="bb001d8b-f9a2-4bd9-966d-d907751e24e4" cx="-314.37" cy="284.1" r="1" gradientTransform="matrix(3.37, 0, 0, -3.37, 1073.01, 961.46)" gradientUnits="userSpaceOnUse"><stop offset="0" stop-color="#ffed1c"/><stop offset="0.2" stop-color="#ffee2b" stop-opacity="0.8"/><stop offset="0.58" stop-color="#fff254" stop-opacity="0.42"/><stop offset="1" stop-color="#fff686" stop-opacity="0"/></radialGradient><radialGradient id="f9eae1ef-93f8-4ad6-b64f-3407c23def67" cx="-468.4" cy="-535.1" gradientTransform="matrix(1.51, -2.27, -0.52, -0.34, 439.03, -1243.13)" xlink:href="#fc715cb6-6e0d-4122-b101-03966cbe4981"/><radialGradient id="f50d6f7d-bf61-49bc-b9d4-ca614a16e43b" cx="-314.03" cy="876.9" r="1" gradientTransform="matrix(-0.22, 2.44, 0.98, 0.09, -921.52, 694.48)" xlink:href="#bb001d8b-f9a2-4bd9-966d-d907751e24e4"/><radialGradient id="bdfba908-0cf7-46d7-bed7-351dbf3044ae" cx="-404.49" cy="358.1" r="1" gradientTransform="matrix(10.52, 0, 0, -10.52, 4266.44, 3769.34)" gradientUnits="userSpaceOnUse"><stop offset="0" stop-color="#ff4c00"/><stop offset="0.14" stop-color="#ff5b0c" stop-opacity="0.87"/><stop offset="0.39" stop-color="#ff842c" stop-opacity="0.61"/><stop offset="0.75" stop-color="#ffc45f" stop-opacity="0.25"/><stop offset="1" stop-color="#fff686" stop-opacity="0"/></radialGradient><radialGradient id="acbaecb9-1265-4362-9dc8-4c840a92ef5b" cx="-366.92" cy="327.25" r="1" gradientTransform="matrix(5.58, 0, 0, -5.58, 2065.6, 1838.69)" xlink:href="#bb001d8b-f9a2-4bd9-966d-d907751e24e4"/><radialGradient id="aa090ca9-7d6f-44da-a5ef-fc3d7b73a7a2" cx="-371.87" cy="331.31" r="1" gradientTransform="matrix(5.95, 0, 0, -5.95, 2218.53, 1985.17)" xlink:href="#bb001d8b-f9a2-4bd9-966d-d907751e24e4"/><radialGradient id="ec6a90a2-b74f-4913-b813-8ea98a88b613" cx="-408.09" cy="460.97" r="1" gradientTransform="matrix(0.69, 10.17, 6.18, -0.42, -2555.2, 4355.86)" gradientUnits="userSpaceOnUse"><stop offset="0" stop-color="#ff4c00" stop-opacity="0"/><stop offset="0.99" stop-color="#ff4c00" stop-opacity="0.99"/><stop offset="1" stop-color="#ff4c00"/></radialGradient></defs><path class="eaed5a60-f190-44c5-b6e3-44ffca0f10d4" d="M15.74,10.51c.07-3.16-4.73-2.73-3.5-8.22A4.66,4.66,0,0,0,9.58,7.45a4.41,4.41,0,0,1-.27,2.33c-.48.1-1.21-.84-1-2.3a4.28,4.28,0,0,0-1.69,2.89,9.37,9.37,0,0,0,.79,3.34c-1.95-.42-1.76-3.05-1.76-3.05a8.39,8.39,0,0,0-1.23,4.76c0,2.43,2.73,6.29,7.13,6.29s8-3.41,8-6.45a5.88,5.88,0,0,0-1.43-4s.13,2.66-1.18,2.53c0,0,1.08-3.47-.06-5.06C16.87,8.74,16.33,10.46,15.74,10.51Z" transform="translate(-4.46 -2.29)"/><path class="bcce7b4b-b0b9-49ad-9110-f27d52ddf5ff" d="M15.75,8.13C17,5.77,13.86,5.44,13.85,4a2.25,2.25,0,0,0,.78,2.52A2.43,2.43,0,0,1,15.75,8.13Z" transform="translate(-4.46 -2.29)"/><path class="a8919537-bffd-4ea5-b84e-b56ae2dfc999" d="M9,3.61c-.49.48.18,2.46-1.34,3.25A3.06,3.06,0,0,1,9,3.61Z" transform="translate(-4.46 -2.29)"/><path class="f021a87e-c10f-4082-8b74-2df80e6ae190" d="M5.46,11.45a7.81,7.81,0,0,0-1,4c0,2.13,2.71,6,7.13,6s7.69-3.33,7.69-6.2A6.28,6.28,0,0,0,18.36,12a3,3,0,0,1-.63,1.81,1,1,0,0,1-.83.28l-.32,0,.1-.3s.84-2.74.24-4.35c-.24.59-.65,1.35-1.15,1.39l-.29,0v-.28c0-1.18-.71-1.81-1.55-2.54a4.88,4.88,0,0,1-2-5.2A4.35,4.35,0,0,0,9.83,7.41a4.74,4.74,0,0,1-.29,2.48L9.48,10l-.13,0a.83.83,0,0,1-.72-.26A2.48,2.48,0,0,1,8,8.11a3.51,3.51,0,0,0-1.11,2.26,9.2,9.2,0,0,0,.76,3.23l.21.47L7.39,14A2.67,2.67,0,0,1,5.46,11.45Z" transform="translate(-4.46 -2.29)"/><path class="bcb6aa72-39ca-4796-8879-3d24679c4de4" d="M13.85,4a3.18,3.18,0,0,0,.78,2.52,2.7,2.7,0,0,1,1.11,1.62,1.62,1.62,0,0,0-1-2.55A1.83,1.83,0,0,1,13.85,4Z" transform="translate(-4.46 -2.29)"/><path class="b19573e2-49b8-4da3-b969-62e951d34865" d="M11.22,3.74c-1.9,3,.56,6.11-.71,8s-2.55.14-2.64-1c0,0,0,3.8,1.9,5.31s-3.62,1.17-4.38-.66c0,0,0,6.11,6.2,6.11a7.17,7.17,0,0,0,7.24-5.69s-2.26,1.93-3.76.42a13.16,13.16,0,0,0,1.41-4,3,3,0,0,1-2,.3s.66-2.84-.69-3.77C12.08,7.54,10.61,4.69,11.22,3.74Z" transform="translate(-4.46 -2.29)"/><path class="bcc96d5c-d61a-4ec7-ad77-f1b147292c0e" d="M11.69,7.24c-1,1.31.94,4.67-1.09,6a1.23,1.23,0,0,1-1.77-.15,5.8,5.8,0,0,0,1.51,2.57c1.21,1.21-1.82,2.85-4.28.73,0,0,.84,5.1,6.57,4.24C19,19.69,18.49,15,18.49,15s-1.71,2.7-4.15,1.41c0,0,1.53-2.14,1.53-3.37a2.46,2.46,0,0,1-2.22,0s.56-2.86-.11-3.29A4,4,0,0,1,11.69,7.24Z" transform="translate(-4.46 -2.29)"/><path class="a08200e5-9675-4296-b349-52ad59398459" d="M15.74,10.51c.07-3.16-4.73-2.73-3.5-8.22A4.66,4.66,0,0,0,9.58,7.45a4.41,4.41,0,0,1-.27,2.33c-.48.1-1.21-.84-1-2.3a4.28,4.28,0,0,0-1.69,2.89,9.37,9.37,0,0,0,.79,3.34c-1.95-.42-1.76-3.05-1.76-3.05a8.39,8.39,0,0,0-1.23,4.76c0,2.43,2.73,6.29,7.13,6.29s8-3.41,8-6.45a5.88,5.88,0,0,0-1.43-4s.13,2.66-1.18,2.53c0,0,1.08-3.47-.06-5.06C16.87,8.74,16.33,10.46,15.74,10.51Z" transform="translate(-4.46 -2.29)"/><path class="bb3706e3-2b7d-4596-98a5-080a7095361e" d="M15.74,10.51c.07-3.16-4.73-2.73-3.5-8.22A4.66,4.66,0,0,0,9.58,7.45a4.41,4.41,0,0,1-.27,2.33c-.48.1-1.21-.84-1-2.3a4.28,4.28,0,0,0-1.69,2.89,9.37,9.37,0,0,0,.79,3.34c-1.95-.42-1.76-3.05-1.76-3.05a8.39,8.39,0,0,0-1.23,4.76c0,2.43,2.73,6.29,7.13,6.29s8-3.41,8-6.45a5.88,5.88,0,0,0-1.43-4s.13,2.66-1.18,2.53c0,0,1.08-3.47-.06-5.06C16.87,8.74,16.33,10.46,15.74,10.51Z" transform="translate(-4.46 -2.29)"/><path class="ec9b9c2c-5876-4bc0-b9e3-1655d6c74535" d="M4.85,14.1c.13,3.23,2.78,7.09,6.94,7.09s6.23-4.38,6.36-6.94a3.77,3.77,0,0,1-2.53,1.81c-1.76.3.12-3-1.11-5,0,0-1.09,3.43-2.63,3.55S9,12.36,9,11.07a10,10,0,0,0-.72,4.16C8.67,18,4.85,14.1,4.85,14.1Z" transform="translate(-4.46 -2.29)"/><path class="a3a23fb8-a164-437d-adef-7611d4048394" d="M15.74,10.51c.07-3.16-4.73-2.73-3.5-8.22A4.66,4.66,0,0,0,9.58,7.45a4.41,4.41,0,0,1-.27,2.33c-.48.1-1.21-.84-1-2.3a4.28,4.28,0,0,0-1.69,2.89,9.37,9.37,0,0,0,.79,3.34c-1.95-.42-1.76-3.05-1.76-3.05a8.39,8.39,0,0,0-1.23,4.76c0,2.43,2.73,6.29,7.13,6.29s8-3.41,8-6.45a5.88,5.88,0,0,0-1.43-4s.13,2.66-1.18,2.53c0,0,1.08-3.47-.06-5.06C16.87,8.74,16.33,10.46,15.74,10.51Z" transform="translate(-4.46 -2.29)"/><path class="ff63ccfd-0e0b-4ab0-a8c9-509cd3f77ea3" d="M15.75,8.13C17,5.77,13.86,5.44,13.85,4a2.25,2.25,0,0,0,.78,2.52A2.43,2.43,0,0,1,15.75,8.13Z" transform="translate(-4.46 -2.29)"/><path class="b696cf91-b9db-4420-ae60-f5f636acb3a2" d="M9,3.61c-.48.48-.17,2-1.34,3.25A3.06,3.06,0,0,1,9,3.61Z" transform="translate(-4.46 -2.29)"/><path class="a2a44697-ba05-4cba-b99e-e42864629bc6" d="M9,3.61c-.49.48.18,2.46-1.34,3.25A3.06,3.06,0,0,1,9,3.61Z" transform="translate(-4.46 -2.29)"/><path class="e4d13bea-580c-4c93-9ead-46d80702cfdb" d="M15.74,10.51c.07-3.16-4.73-2.73-3.5-8.22A4.66,4.66,0,0,0,9.58,7.45a4.41,4.41,0,0,1-.27,2.33c-.48.1-1.21-.84-1-2.3a4.28,4.28,0,0,0-1.69,2.89,9.37,9.37,0,0,0,.79,3.34c-1.95-.42-1.76-3.05-1.76-3.05a8.39,8.39,0,0,0-1.23,4.76c0,2.43,2.73,6.29,7.13,6.29s8-3.41,8-6.45a5.88,5.88,0,0,0-1.43-4s.13,2.66-1.18,2.53c0,0,1.08-3.47-.06-5.06C16.87,8.74,16.33,10.46,15.74,10.51Z" transform="translate(-4.46 -2.29)"/><path class="f9e08865-5fe0-439d-92dc-fed366ab55a5" d="M15.74,10.51c.07-3.16-4.73-2.73-3.5-8.22A4.66,4.66,0,0,0,9.58,7.45a4.41,4.41,0,0,1-.27,2.33c-.48.1-1.21-.84-1-2.3a4.28,4.28,0,0,0-1.69,2.89,9.37,9.37,0,0,0,.79,3.34c-1.95-.42-1.76-3.05-1.76-3.05a8.39,8.39,0,0,0-1.23,4.76c0,2.43,2.73,6.29,7.13,6.29s8-3.41,8-6.45a5.88,5.88,0,0,0-1.43-4s.13,2.66-1.18,2.53c0,0,1.08-3.47-.06-5.06C16.87,8.74,16.33,10.46,15.74,10.51Z" transform="translate(-4.46 -2.29)"/><path class="a30fc475-bb1b-4e98-b754-4cfd1b568df1" d="M15.74,10.51c.07-3.16-4.73-2.73-3.5-8.22A4.66,4.66,0,0,0,9.58,7.45a4.41,4.41,0,0,1-.27,2.33c-.48.1-1.21-.84-1-2.3a4.28,4.28,0,0,0-1.69,2.89,9.37,9.37,0,0,0,.79,3.34c-1.95-.42-1.76-3.05-1.76-3.05a8.39,8.39,0,0,0-1.23,4.76c0,2.43,2.73,6.29,7.13,6.29s8-3.41,8-6.45a5.88,5.88,0,0,0-1.43-4s.13,2.66-1.18,2.53c0,0,1.08-3.47-.06-5.06C16.87,8.74,16.33,10.46,15.74,10.51Z" transform="translate(-4.46 -2.29)"/><path class="a86467f4-dbe0-40d8-9436-166382e3372e" d="M15.74,10.51c.07-3.16-4.73-2.73-3.5-8.22A4.66,4.66,0,0,0,9.58,7.45a4.41,4.41,0,0,1-.27,2.33c-.48.1-1.21-.84-1-2.3a4.28,4.28,0,0,0-1.69,2.89,9.37,9.37,0,0,0,.79,3.34c-1.95-.42-1.76-3.05-1.76-3.05a8.39,8.39,0,0,0-1.23,4.76c0,2.43,2.73,6.29,7.13,6.29s8-3.41,8-6.45a5.88,5.88,0,0,0-1.43-4s.13,2.66-1.18,2.53c0,0,1.08-3.47-.06-5.06C16.87,8.74,16.33,10.46,15.74,10.51Z" transform="translate(-4.46 -2.29)"/></svg>