<svg xmlns="http://www.w3.org/2000/svg" xmlns:xlink="http://www.w3.org/1999/xlink" viewBox="0 0 60.95 60.95"><defs><style>.a{fill:url(#a);}.b,.c,.p,.q,.r{opacity:0.5;}.b,.c,.l,.m,.p,.q,.r,.s,.t,.u{isolation:isolate;}.b{fill:url(#b);}.c{fill:url(#c);}.d{fill:url(#d);}.e{fill:url(#e);}.f{fill:url(#f);}.g{fill:url(#g);}.h{fill:url(#h);}.i{fill:url(#i);}.j{fill:url(#j);}.k,.l,.m{opacity:0.75;}.l{fill:url(#k);}.m{fill:url(#l);}.n{fill:#a3541e;}.o{fill:url(#m);}.p{fill:url(#n);}.q{fill:url(#o);}.r{fill:url(#p);}.s,.t{opacity:0.24;}.s{fill:url(#q);}.t{fill:url(#r);}.u{opacity:0.32;fill:url(#s);}</style><radialGradient id="a" cx="-407.6" cy="411.78" r="1" gradientTransform="matrix(36.77, 0, 0, -36.77, 15019.79, 15166.97)" gradientUnits="userSpaceOnUse"><stop offset="0" stop-color="#ffe030"/><stop offset="1" stop-color="#ffb92e"/></radialGradient><radialGradient id="b" cx="-404.51" cy="409.28" r="1" gradientTransform="matrix(28.93, 0, 0, -28.93, 11734.62, 11866.12)" gradientUnits="userSpaceOnUse"><stop offset="0" stop-color="#ffea5f"/><stop offset="1" stop-color="#ffbc47" stop-opacity="0"/></radialGradient><radialGradient id="c" cx="-387.63" cy="385.62" r="1" gradientTransform="matrix(12.8, -0.62, -0.49, -10.13, 5175.68, 3714.19)" gradientUnits="userSpaceOnUse"><stop offset="0" stop-color="#ff4c00"/><stop offset="0.15" stop-color="#ff4c00"/><stop offset="0.18" stop-color="#ff4c00"/><stop offset="0.4" stop-color="#fb4c0b" stop-opacity="0.73"/><stop offset="0.78" stop-color="#ef4b27" stop-opacity="0.27"/><stop offset="1" stop-color="#e74a3a" stop-opacity="0"/></radialGradient><linearGradient id="d" x1="26.39" y1="51.47" x2="25.12" y2="54.42" gradientTransform="matrix(1, 0, 0, -1, 0, 82)" gradientUnits="userSpaceOnUse"><stop offset="0" stop-color="#3c2200"/><stop offset="1" stop-color="#7a4400"/></linearGradient><radialGradient id="e" cx="-316.32" cy="531.63" r="1" gradientTransform="matrix(1.2, 4.14, 2.68, -0.77, -1014.73, 1759.31)" gradientUnits="userSpaceOnUse"><stop offset="0" stop-color="#7a4400"/><stop offset="1" stop-color="#643800"/></radialGradient><linearGradient id="f" x1="30.06" y1="47.5" x2="30.06" y2="43.37" gradientTransform="matrix(1, 0, 0, -1, 0, 82)" gradientUnits="userSpaceOnUse"><stop offset="0" stop-color="#3c2200"/><stop offset="1" stop-color="#512d00"/></linearGradient><linearGradient id="g" x1="52.5" y1="50.61" x2="52.16" y2="53.81" xlink:href="#d"/><radialGradient id="h" cx="-373.35" cy="495.78" r="1" gradientTransform="matrix(0.11, 7.55, 5.54, -0.08, -2664.67, 2914.85)" gradientUnits="userSpaceOnUse"><stop offset="0" stop-color="#7a4400" stop-opacity="0.5"/><stop offset="0.58" stop-color="#894d00" stop-opacity="0.21"/><stop offset="0.99" stop-color="#975500" stop-opacity="0"/></radialGradient><radialGradient id="i" cx="-327.21" cy="286.74" r="1" gradientTransform="matrix(4.79, 0.31, 0.15, -2.31, 1573.96, 803.86)" xlink:href="#e"/><linearGradient id="j" x1="51.35" y1="47.33" x2="51.16" y2="44.24" xlink:href="#f"/><radialGradient id="k" cx="-301.82" cy="276.34" r="1" gradientTransform="matrix(3.58, 0, 0, -2.34, 1120.64, 699.45)" gradientUnits="userSpaceOnUse"><stop offset="0" stop-color="#fff" stop-opacity="0.75"/><stop offset="1" stop-color="#fff" stop-opacity="0"/></radialGradient><radialGradient id="l" cx="-301.82" cy="276.34" r="1" gradientTransform="matrix(3.58, 0, 0, -2.34, 1120.65, 707.09)" xlink:href="#k"/><radialGradient id="m" cx="-400.41" cy="392.98" r="1" gradientTransform="matrix(18.25, -3.58, -2.84, -14.48, 8479.37, 4304.11)" gradientUnits="userSpaceOnUse"><stop offset="0.25" stop-color="red"/><stop offset="0.86" stop-color="#c20000"/></radialGradient><radialGradient id="n" cx="-397.4" cy="388.46" r="1" gradientTransform="matrix(15.71, -3.09, -2.45, -12.46, 7250.6, 3664.54)" gradientUnits="userSpaceOnUse"><stop offset="0.25" stop-color="red"/><stop offset="1" stop-color="#c20000"/></radialGradient><radialGradient id="o" cx="-400.41" cy="392.98" r="1" gradientTransform="matrix(18.25, -3.58, -2.84, -14.48, 8479.37, 4304.11)" gradientUnits="userSpaceOnUse"><stop offset="0" stop-color="#fff" stop-opacity="0.25"/><stop offset="1" stop-color="#fff" stop-opacity="0"/></radialGradient><radialGradient id="p" cx="-391.91" cy="362.27" r="1" gradientTransform="matrix(13.44, -1.89, -0.93, -6.64, 5666.04, 1724.73)" gradientUnits="userSpaceOnUse"><stop offset="0" stop-color="#bd2719" stop-opacity="0.25"/><stop offset="1" stop-color="#bd2719" stop-opacity="0"/></radialGradient><radialGradient id="q" cx="-336.49" cy="299.87" r="1" gradientTransform="matrix(4.82, -0.29, -0.18, -2.99, 1727.02, 848.92)" gradientUnits="userSpaceOnUse"><stop offset="0" stop-color="#fff"/><stop offset="1" stop-color="#fff" stop-opacity="0"/></radialGradient><radialGradient id="r" cx="-354.5" cy="230.31" r="1" gradientTransform="matrix(3.69, -1.53, -0.95, -2.29, 1589.26, 37.15)" xlink:href="#q"/><linearGradient id="s" x1="52.73" y1="7.65" x2="64.67" y2="36.4" gradientTransform="matrix(1, 0, 0, -1, 0, 82)" gradientUnits="userSpaceOnUse"><stop offset="0" stop-color="#860805"/><stop offset="1" stop-color="#bd2719" stop-opacity="0"/></linearGradient></defs><path class="a" d="M40,70.48A30.48,30.48,0,1,0,9.52,40,30.48,30.48,0,0,0,40,70.48Z" transform="translate(-9.52 -9.52)"/><path class="b" d="M40,70.48A30.48,30.48,0,1,0,9.52,40,30.48,30.48,0,0,0,40,70.48Z" transform="translate(-9.52 -9.52)"/><path class="c" d="M40,70.48A30.48,30.48,0,1,0,9.52,40,30.48,30.48,0,0,0,40,70.48Z" transform="translate(-9.52 -9.52)"/><path class="d" d="M31.49,26.11c-.48-1.12-2-1.29-4.08-.4a12.49,12.49,0,0,0-6.44,8c-.23.86.69.88,1,.25a16.41,16.41,0,0,1,8.31-6.91C31.71,26.61,31.49,26.11,31.49,26.11Z" transform="translate(-9.52 -9.52)"/><path class="e" d="M30.06,43.39c1.62,0,2.93-2,2.93-4.44s-1.31-4.44-2.93-4.44-2.94,2-2.94,4.44S28.44,43.39,30.06,43.39Z" transform="translate(-9.52 -9.52)"/><path class="f" d="M30.06,36c1.25,0,2.36,1.1,2.93,2.72,0-2.4-1.33-4.32-2.93-4.32s-2.9,1.92-2.94,4.32C27.7,37.12,28.78,36,30.06,36Z" transform="translate(-9.52 -9.52)"/><path class="g" d="M45.89,30c-.14-1.22,1.1-2.12,3.37-2.34a12.55,12.55,0,0,1,9.54,3.84c.61.63-.17,1.11-.74.71a16.6,16.6,0,0,0-10.63-2C45.94,30.57,45.89,30,45.89,30Z" transform="translate(-9.52 -9.52)"/><path class="h" d="M37.73,62.53c3.17-.55,6.16-1.5,6.16-3s-4.48-2.92-4.48-3.83,4.48-2.29,4.48-3.83-3-2.5-6.16-3c0,0,14.29-.82,14.29,6.86S37.73,62.53,37.73,62.53Z" transform="translate(-9.52 -9.52)"/><path class="i" d="M51.24,36.08s4.46.28,5.81,3.6a2.08,2.08,0,0,1,.13.64c0,.46-.38.94-1.18.54-5-2.5-7.73-1.15-9.79-.17a1,1,0,0,1-1.33-1.17,2,2,0,0,1,.21-.62C46.78,35.75,51.24,36.08,51.24,36.08Z" transform="translate(-9.52 -9.52)"/><path class="j" d="M51.18,37.12a9.5,9.5,0,0,1,6,2.92,1.41,1.41,0,0,0-.11-.38c-1.35-3.32-5.81-3.6-5.81-3.6s-4.46-.31-6.15,2.8a2.32,2.32,0,0,0-.16.36A9.41,9.41,0,0,1,51.18,37.12Z" transform="translate(-9.52 -9.52)"/><g class="k"><path class="l" d="M39.41,55.68c0-.9,4.48-2.29,4.48-3.83s-3-2.5-6.16-3.05" transform="translate(-9.52 -9.52)"/><path class="m" d="M39.41,55.68c0,.89,4.48,2.28,4.48,3.82s-3,2.5-6.16,3" transform="translate(-9.52 -9.52)"/></g><path class="n" d="M37.7,62.34a26.1,26.1,0,0,0,3.18-.85,10.76,10.76,0,0,0,1.46-.65,2.51,2.51,0,0,0,1.07-1,.79.79,0,0,0,.08-.29v-.19l0-.06a1.37,1.37,0,0,0-.36-.51,7.5,7.5,0,0,0-1.28-.9c-.48-.26-.95-.53-1.45-.82a7.59,7.59,0,0,1-.74-.47,3.57,3.57,0,0,1-.38-.33l-.1-.11s0-.1-.09-.13A.49.49,0,0,1,39,55.9a.86.86,0,0,1,0-.24,1.09,1.09,0,0,1,0-.25c0-.06.06-.13.08-.19s0-.1.09-.13l.1-.12a2.69,2.69,0,0,1,.38-.32,5.16,5.16,0,0,1,.74-.48c.5-.28,1-.55,1.43-.84.88-.53,1.94-1.27,1.5-1.84a2.53,2.53,0,0,0-1-.9,12.57,12.57,0,0,0-1.45-.65c-1-.38-2.08-.66-3.14-.95a.19.19,0,0,1-.14-.23.17.17,0,0,1,.19-.13,18.23,18.23,0,0,1,3.34.57,8.64,8.64,0,0,1,1.62.61,4.39,4.39,0,0,1,.78.49,2.51,2.51,0,0,1,.66.77,2,2,0,0,1,.19.53,1.46,1.46,0,0,1,0,.3.55.55,0,0,1,0,.18.66.66,0,0,0,0,.15,1.69,1.69,0,0,1-.12.28,1.57,1.57,0,0,1-.13.23l-.15.21-.18.17a8.37,8.37,0,0,1-1.42,1.05c-.5.29-1,.55-1.45.84a7.57,7.57,0,0,0-.67.42l-.27.21,0,0,0,0h0s0,0,0,0v0s0,0,0,0l0,0a1.55,1.55,0,0,0,.27.23,6.49,6.49,0,0,0,.67.44c.45.29,1,.55,1.43.86a7.54,7.54,0,0,1,1.41,1.06,2.28,2.28,0,0,1,.3.38.76.76,0,0,1,.13.23,1.48,1.48,0,0,1,.1.27,1.46,1.46,0,0,1-.15,1.09,2.38,2.38,0,0,1-.65.72,5.66,5.66,0,0,1-.76.48,10.09,10.09,0,0,1-1.6.61,22.22,22.22,0,0,1-3.3.68.18.18,0,0,1-.21-.17C37.54,62.46,37.6,62.36,37.7,62.34Z" transform="translate(-9.52 -9.52)"/><path class="o" d="M65,46.71a6.52,6.52,0,0,0-6,1,6.51,6.51,0,0,0-12.44-.24c-2.49,7.54,6.56,18,6.56,18s13.52-3,16-10.59A6.51,6.51,0,0,0,65,46.71Z" transform="translate(-9.52 -9.52)"/><path class="p" d="M67.33,48.11c1.6,6.52-3.84,12.58-8.26,13.34-4.88.86-7.36-1.13-12.1-6.38a36.66,36.66,0,0,0,6.12,10.45s13.52-3,16-10.59A6.53,6.53,0,0,0,67.33,48.11Z" transform="translate(-9.52 -9.52)"/><path class="q" d="M65,46.71a6.52,6.52,0,0,0-6,1,6.51,6.51,0,0,0-12.44-.24c-2.49,7.54,6.56,18,6.56,18s13.52-3,16-10.59A6.51,6.51,0,0,0,65,46.71Z" transform="translate(-9.52 -9.52)"/><path class="r" d="M65,46.71a6.52,6.52,0,0,0-6,1,6.51,6.51,0,0,0-12.44-.24c-2.49,7.54,6.56,18,6.56,18s13.52-3,16-10.59A6.51,6.51,0,0,0,65,46.71Z" transform="translate(-9.52 -9.52)"/><path class="s" d="M57.47,47c.13,1.66-1.89,3.18-4.54,3.41s-4.89-.95-5-2.61,1.89-3.18,4.54-3.41S57.33,45.35,57.47,47Z" transform="translate(-9.52 -9.52)"/><path class="t" d="M65.43,48.34c.55,1.26-.63,3-2.63,3.89s-4.1.57-4.65-.69.63-3,2.63-3.88S64.88,47.09,65.43,48.34Z" transform="translate(-9.52 -9.52)"/><path class="u" d="M64.51,48.38c2.77,2.08,4.2,7.66-2.7,11.72-4.13,2.43-8,3.06-11.91,1a38.8,38.8,0,0,0,3.17,4.4s13.52-3,16-10.59A6.51,6.51,0,0,0,59,47.71S62.5,46.86,64.51,48.38Z" transform="translate(-9.52 -9.52)"/></svg>