<svg id="ad16f8fa-9a04-45c7-b96b-ca5a11d5cd21" data-name="Capa 1" xmlns="http://www.w3.org/2000/svg" xmlns:xlink="http://www.w3.org/1999/xlink" viewBox="0 0 60.95 62.28"><defs><style>.b7202354-ab5a-40ce-86f1-d2808cb26486{fill:url(#b3752dde-7a5f-443b-a22d-6c5da1f4e832);}.e968b302-7154-495b-a7cf-18265ff44630{opacity:0.5;isolation:isolate;fill:url(#a28394e0-d51f-4497-aa19-85396d49312e);}.a6c4aa14-6130-466d-84e5-e38256a88c75{fill:url(#adf653e5-8796-4163-8cfd-bb9bf5f04a92);}.bb5fe9ac-afed-475d-8593-9c227b1d7846{fill:#643800;}.f3c420c6-c225-4736-b9fd-ee71bb33e284{fill:url(#a49d1878-d49a-48e2-966b-fa6cadf030cd);}.ebf014fb-0327-4467-bd47-57e29296eb70{fill:url(#b01eecfb-96d9-4090-a0c1-343b3323be1c);}.e9644c6d-8534-483b-b44a-0b2188ab9780{fill:url(#ec98594b-35ec-4657-ac3d-7f7cfc84cadd);}.f9eb43ac-0ede-4a84-98b5-54e0e6a77b52{fill:url(#b66cf28c-88ac-4d1c-9de5-9d02e68bc8b7);}.a7cac1e1-ef9b-4509-8f42-8ed041f34e40{fill:url(#f464f374-56d4-4dcf-86f5-fdbc28826ce2);}.b7b7ab8a-8391-4dac-9fc0-53f8277bee3e{fill:url(#a49bf573-a591-42e9-ad2e-fb4791ea9559);}.a1ff81f3-145c-4aba-bfa1-3c90880a16f8{fill:url(#e0bc8b02-eb78-4547-861e-14f4deb629ca);}.b3a6b9b8-6b43-417f-9cda-09a598ed390a{fill:url(#a1c46d15-f110-44d1-8e0d-af931da928c0);}.a4e0c97a-a414-4931-865d-e72e3d0b7ebd{fill:url(#a206682b-4d1c-4954-8937-c67419570e2c);}.a8ffb1ca-a52b-4b0e-a67f-f252bd310af5{fill:url(#fae66302-8ce4-4451-8e68-e4729de530b1);}.b399b668-cfd2-4a37-9688-b8b96cacbc3f{fill:url(#b0c2c98d-af49-421a-848e-ab771208b12c);}</style><radialGradient id="b3752dde-7a5f-443b-a22d-6c5da1f4e832" cx="-407.6" cy="411.78" r="1" gradientTransform="matrix(36.76, 0, 0, -36.76, 15019.68, 15165.85)" gradientUnits="userSpaceOnUse"><stop offset="0" stop-color="#ffdf30"/><stop offset="1" stop-color="#ffb82e"/></radialGradient><radialGradient id="a28394e0-d51f-4497-aa19-85396d49312e" cx="-404.51" cy="409.28" r="1" gradientTransform="matrix(28.92, 0, 0, -28.92, 11734.59, 11865.09)" gradientUnits="userSpaceOnUse"><stop offset="0" stop-color="#ffe95f"/><stop offset="1" stop-color="#ffbb47" stop-opacity="0"/></radialGradient><radialGradient id="adf653e5-8796-4163-8cfd-bb9bf5f04a92" cx="-392.48" cy="377.89" r="1" gradientTransform="matrix(15.8, 0, 0, -7.86, 6242.02, 3035.68)" gradientUnits="userSpaceOnUse"><stop offset="0" stop-color="#7a4400" stop-opacity="0.5"/><stop offset="0.6" stop-color="#894d00" stop-opacity="0.2"/><stop offset="0.99" stop-color="#965500" stop-opacity="0"/></radialGradient><linearGradient id="a49d1878-d49a-48e2-966b-fa6cadf030cd" x1="40.48" y1="15.91" x2="40.48" y2="29.28" gradientTransform="matrix(1, 0, 0, -1, 0, 82)" gradientUnits="userSpaceOnUse"><stop offset="0" stop-color="#ff6687"/><stop offset="1" stop-color="#d83e15"/></linearGradient><radialGradient id="b01eecfb-96d9-4090-a0c1-343b3323be1c" cx="-406.95" cy="319.95" r="1" gradientTransform="matrix(6.62, -5.54, -3.36, -4.01, 3811.23, -902.69)" gradientUnits="userSpaceOnUse"><stop offset="0" stop-color="#fff" stop-opacity="0.33"/><stop offset="1" stop-color="#fff" stop-opacity="0"/></radialGradient><linearGradient id="ec98594b-35ec-4657-ac3d-7f7cfc84cadd" x1="40.48" y1="24.08" x2="40.48" y2="6.75" gradientTransform="matrix(1, 0, 0, -1, 0, 82)" gradientUnits="userSpaceOnUse"><stop offset="0" stop-color="#d83e15" stop-opacity="0"/><stop offset="1" stop-color="#d83e15"/></linearGradient><linearGradient id="b66cf28c-88ac-4d1c-9de5-9d02e68bc8b7" x1="40.47" y1="37.3" x2="40.47" y2="26.08" gradientTransform="matrix(1, 0, 0, -1, 0, 82)" gradientUnits="userSpaceOnUse"><stop offset="0" stop-color="#3c2200"/><stop offset="1" stop-color="#512d00"/></linearGradient><linearGradient id="f464f374-56d4-4dcf-86f5-fdbc28826ce2" x1="40.48" y1="20.91" x2="40.48" y2="25.8" gradientTransform="matrix(1, 0, 0, -1, 0, 82)" gradientUnits="userSpaceOnUse"><stop offset="0" stop-color="#d83e15" stop-opacity="0"/><stop offset="1" stop-color="#bc2719"/></linearGradient><linearGradient id="a49bf573-a591-42e9-ad2e-fb4791ea9559" x1="27.35" y1="56.27" x2="27.35" y2="59.48" gradientTransform="matrix(1, 0, 0, -1, 0, 82)" gradientUnits="userSpaceOnUse"><stop offset="0" stop-color="#3c2200"/><stop offset="1" stop-color="#7a4400"/></linearGradient><radialGradient id="e0bc8b02-eb78-4547-861e-14f4deb629ca" cx="-316.31" cy="531.64" r="1" gradientTransform="matrix(1.2, 4.14, 2.68, -0.77, -1014.2, 1754.21)" gradientUnits="userSpaceOnUse"><stop offset="0" stop-color="#7a4400"/><stop offset="1" stop-color="#643800"/></radialGradient><linearGradient id="a1c46d15-f110-44d1-8e0d-af931da928c0" x1="30.53" y1="52.41" x2="30.53" y2="48.27" xlink:href="#b66cf28c-88ac-4d1c-9de5-9d02e68bc8b7"/><linearGradient id="a206682b-4d1c-4954-8937-c67419570e2c" x1="53.6" y1="56.27" x2="53.6" y2="59.48" xlink:href="#a49bf573-a591-42e9-ad2e-fb4791ea9559"/><radialGradient id="fae66302-8ce4-4451-8e68-e4729de530b1" cx="-316.31" cy="531.64" r="1" gradientTransform="matrix(1.2, 4.14, 2.68, -0.77, -994.31, 1754.21)" xlink:href="#e0bc8b02-eb78-4547-861e-14f4deb629ca"/><linearGradient id="b0c2c98d-af49-421a-848e-ab771208b12c" x1="50.42" y1="52.41" x2="50.42" y2="48.27" xlink:href="#b66cf28c-88ac-4d1c-9de5-9d02e68bc8b7"/></defs><path class="b7202354-ab5a-40ce-86f1-d2808cb26486" d="M40.47,70A30.48,30.48,0,1,0,10,39.47,30.47,30.47,0,0,0,40.47,70Z" transform="translate(-10 -9)"/><path class="e968b302-7154-495b-a7cf-18265ff44630" d="M40.47,70A30.48,30.48,0,1,0,10,39.47,30.47,30.47,0,0,0,40.47,70Z" transform="translate(-10 -9)"/><path class="a6c4aa14-6130-466d-84e5-e38256a88c75" d="M40.47,70A30.48,30.48,0,1,0,10,39.47,30.47,30.47,0,0,0,40.47,70Z" transform="translate(-10 -9)"/><path class="bb5fe9ac-afed-475d-8593-9c227b1d7846" d="M40.47,62.56C26,62.56,21.38,47.83,25.79,50.14c5.92,3.1,9.67,4,14.68,4s8.77-.9,14.69-4C59.57,47.83,54.94,62.56,40.47,62.56Z" transform="translate(-10 -9)"/><path class="f3c420c6-c225-4736-b9fd-ee71bb33e284" d="M49.17,56.54a1.34,1.34,0,0,0-1.7-1.29,25.71,25.71,0,0,1-14,0,1.33,1.33,0,0,0-1.7,1.29v5.84a8.7,8.7,0,1,0,17.39,0h0Z" transform="translate(-10 -9)"/><path class="ebf014fb-0327-4467-bd47-57e29296eb70" d="M49.17,56.54a1.34,1.34,0,0,0-1.7-1.29,25.71,25.71,0,0,1-14,0,1.33,1.33,0,0,0-1.7,1.29v5.84a8.7,8.7,0,1,0,17.39,0h0Z" transform="translate(-10 -9)"/><path class="e9644c6d-8534-483b-b44a-0b2188ab9780" d="M39.58,56.63h1.79c0,11.13-.41,11.29-.89,11.29S39.58,67.73,39.58,56.63Z" transform="translate(-10 -9)"/><path class="f9eb43ac-0ede-4a84-98b5-54e0e6a77b52" d="M55.16,50.14c-5.92,3.1-9.67,4-14.69,4s-8.76-.9-14.68-4c-1.54-.81-2,.47-1.29,2.46,0,0,.24-2.17,2.31-.7h0a22.11,22.11,0,0,0,13.64,4.34A22,22,0,0,0,54.12,51.9h0c2.08-1.47,2.3.64,2.32.7C57.13,50.61,56.7,49.33,55.16,50.14Z" transform="translate(-10 -9)"/><path class="a7cac1e1-ef9b-4509-8f42-8ed041f34e40" d="M40.48,56.24a24.46,24.46,0,0,1-7-1,1.33,1.33,0,0,0-1.7,1.27v3.3s.11-2.1,8.7-2.1,8.69,2.1,8.69,2.1v-3.3a1.31,1.31,0,0,0-1.7-1.27A25.16,25.16,0,0,1,40.48,56.24Z" transform="translate(-10 -9)"/><path class="b7b7ab8a-8391-4dac-9fc0-53f8277bee3e" d="M33.77,23.68c0-1.22-1.33-2-3.58-2a12.45,12.45,0,0,0-9.09,4.82c-.54.7.28,1.08.82.63a16.53,16.53,0,0,1,10.36-3.08C33.77,24.24,33.77,23.68,33.77,23.68Z" transform="translate(-10 -9)"/><path class="a1ff81f3-145c-4aba-bfa1-3c90880a16f8" d="M30.53,38.49c1.62,0,2.94-2,2.94-4.43s-1.32-4.43-2.94-4.43-2.94,2-2.94,4.43S28.9,38.49,30.53,38.49Z" transform="translate(-10 -9)"/><path class="b3a6b9b8-6b43-417f-9cda-09a598ed390a" d="M30.53,31.12c1.25,0,2.36,1.09,2.94,2.73,0-2.41-1.35-4.32-2.94-4.32s-2.91,1.93-2.94,4.32C28.16,32.21,29.27,31.12,30.53,31.12Z" transform="translate(-10 -9)"/><path class="a4e0c97a-a414-4931-865d-e72e3d0b7ebd" d="M47.18,23.68c0-1.22,1.33-2,3.58-2a12.45,12.45,0,0,1,9.09,4.82c.54.7-.28,1.08-.82.63a16.53,16.53,0,0,0-10.36-3.08C47.18,24.24,47.18,23.68,47.18,23.68Z" transform="translate(-10 -9)"/><path class="a8ffb1ca-a52b-4b0e-a67f-f252bd310af5" d="M50.42,38.49c1.63,0,2.94-2,2.94-4.43s-1.31-4.43-2.94-4.43-2.94,2-2.94,4.43S48.8,38.49,50.42,38.49Z" transform="translate(-10 -9)"/><path class="b399b668-cfd2-4a37-9688-b8b96cacbc3f" d="M50.42,31.12c-1.25,0-2.36,1.09-2.94,2.73,0-2.41,1.35-4.32,2.94-4.32s2.91,1.93,2.94,4.32C52.79,32.21,51.68,31.12,50.42,31.12Z" transform="translate(-10 -9)"/></svg>