<svg width="8" height="16" viewBox="0 0 8 16" fill="none" xmlns="http://www.w3.org/2000/svg">
<path d="M7.35739 15.0954L7.3574 15.0954C7.54776 14.8784 7.54774 14.5346 7.35741 14.3176L7.3574 14.3176L1.81473 8.00015L7.3574 1.68271C7.54776 1.46574 7.54774 1.12189 7.35741 0.904917L7.35739 0.904895L7.15343 0.67246C6.95188 0.442731 6.61492 0.442731 6.41336 0.67246L0.325465 7.61127C0.135109 7.82823 0.135124 8.17208 0.325453 8.38905L0.325465 8.38907L6.41335 15.3278C6.41335 15.3278 6.41335 15.3278 6.41336 15.3278C6.61491 15.5576 6.95187 15.5576 7.15343 15.3279C7.15343 15.3278 7.15344 15.3278 7.15345 15.3278L7.35739 15.0954Z" fill="#3D4549" stroke="#3D4549" stroke-width="0.333333"/>
</svg>
